<svg width="37" height="37" viewBox="0 0 37 37" fill="none" xmlns="http://www.w3.org/2000/svg">
<path d="M3.88491 7.31322H0.284912V32.5132C0.284912 34.4932 1.90491 36.1132 3.88491 36.1132H29.0849V32.5132H3.88491V7.31322ZM32.6849 0.11322H11.0849C9.10491 0.11322 7.48491 1.73322 7.48491 3.71322V25.3132C7.48491 27.2932 9.10491 28.9132 11.0849 28.9132H32.6849C34.6649 28.9132 36.2849 27.2932 36.2849 25.3132V3.71322C36.2849 1.73322 34.6649 0.11322 32.6849 0.11322ZM30.8849 16.3132H23.6849V23.5132H20.0849V16.3132H12.8849V12.7132H20.0849V5.51322H23.6849V12.7132H30.8849V16.3132Z" fill="#3944F7"/>
</svg>
