<svg width="37" height="37" viewBox="0 0 37 37" fill="none" xmlns="http://www.w3.org/2000/svg">
<path fill-rule="evenodd" clip-rule="evenodd" d="M3.55764 0.11322H33.0122C34.8285 0.11322 36.2849 1.89322 36.2849 4.11322V32.1132C36.2849 34.3332 34.8285 36.1132 33.0122 36.1132H3.55764C1.74128 36.1132 0.284912 34.3332 0.284912 32.1132V4.11322C0.284912 1.89322 1.74128 0.11322 3.55764 0.11322ZM32.6849 32.1532H33.0122V4.07322H3.55764V32.1532H3.88491V31.4813C3.88491 26.6933 13.4789 24.2813 18.2849 24.2813C23.0909 24.2813 32.6849 26.6933 32.6849 31.4813V32.1532ZM25.4849 15.2813C25.4849 19.2593 22.2629 22.4813 18.2849 22.4813C14.3069 22.4813 11.0849 19.2593 11.0849 15.2813C11.0849 11.3033 14.3069 8.08133 18.2849 8.08133C22.2629 8.08133 25.4849 11.3033 25.4849 15.2813Z" fill="#3944F7"/>
</svg>
