<svg width="24" height="25" viewBox="0 0 24 25" fill="none" xmlns="http://www.w3.org/2000/svg">
<path d="M9 11.3046H7V13.3046H9V11.3046ZM13 11.3046H11V13.3046H13V11.3046ZM17 11.3046H15V13.3046H17V11.3046ZM19 4.30457H18V2.30457H16V4.30457H8V2.30457H6V4.30457H5C3.89 4.30457 3.01 5.20457 3.01 6.30457L3 20.3046C3 20.835 3.21071 21.3437 3.58579 21.7188C3.96086 22.0939 4.46957 22.3046 5 22.3046H19C20.1 22.3046 21 21.4046 21 20.3046V6.30457C21 5.20457 20.1 4.30457 19 4.30457ZM19 20.3046H5V9.30457H19V20.3046Z" fill="#B5B5B5"/>
</svg>
