<svg width="33" height="37" viewBox="0 0 33 37" fill="none" xmlns="http://www.w3.org/2000/svg">
<path d="M11.9849 26.0813H17.1599V36.1132H27.5099V26.0813H32.6849L22.3349 16.0494L11.9849 26.0813Z" fill="#3944F7"/>
<path fill-rule="evenodd" clip-rule="evenodd" d="M21.5609 3.71322H29.0849C31.0649 3.71322 32.6849 5.33322 32.6849 7.31322V22.2732L25.4046 14.5132H25.4849V10.9132H7.48491V14.5132H19.6702L16.1965 18.1132H7.48491V21.7132H12.7228L9.24905 25.3132H7.48491V27.1415L7.28491 27.3488H7.48491V28.9132H14.8099V36.1132H3.88491C1.90491 36.1132 0.284912 34.4932 0.284912 32.5132V7.31322C0.284912 5.33322 1.90491 3.71322 3.88491 3.71322H11.4089C12.1649 1.62522 14.1449 0.11322 16.4849 0.11322C18.8249 0.11322 20.8049 1.62522 21.5609 3.71322ZM18.2849 5.51322C18.2849 4.52322 17.4749 3.71322 16.4849 3.71322C15.4949 3.71322 14.6849 4.52322 14.6849 5.51322C14.6849 6.50322 15.4949 7.31322 16.4849 7.31322C17.4749 7.31322 18.2849 6.50322 18.2849 5.51322Z" fill="#3944F7"/>
<path d="M29.8599 36.0287C31.4707 35.6717 32.6849 34.2274 32.6849 32.5132V28.3488H29.8599V36.0287Z" fill="#3944F7"/>
</svg>
