<svg width="172" height="33" viewBox="0 0 172 33" fill="none" xmlns="http://www.w3.org/2000/svg">
<path d="M34.8566 9.26522C36.6326 9.26522 38.1846 9.61722 39.5126 10.3212C40.8406 11.0252 41.8646 12.0172 42.5846 13.2972C43.3206 14.5612 43.6886 16.0252 43.6886 17.6892C43.6886 19.3372 43.3206 20.8012 42.5846 22.0812C41.8646 23.3612 40.8326 24.3532 39.4886 25.0572C38.1606 25.7612 36.6166 26.1132 34.8566 26.1132H28.5446V9.26522H34.8566ZM34.5926 22.5612C36.1446 22.5612 37.3526 22.1372 38.2166 21.2892C39.0806 20.4412 39.5126 19.2412 39.5126 17.6892C39.5126 16.1372 39.0806 14.9292 38.2166 14.0652C37.3526 13.2012 36.1446 12.7692 34.5926 12.7692H32.6486V22.5612H34.5926ZM52.2941 9.26522C54.0701 9.26522 55.6221 9.61722 56.9501 10.3212C58.2781 11.0252 59.3021 12.0172 60.0221 13.2972C60.7581 14.5612 61.1261 16.0252 61.1261 17.6892C61.1261 19.3372 60.7581 20.8012 60.0221 22.0812C59.3021 23.3612 58.2701 24.3532 56.9261 25.0572C55.5981 25.7612 54.0541 26.1132 52.2941 26.1132H45.9821V9.26522H52.2941ZM52.0301 22.5612C53.5821 22.5612 54.7901 22.1372 55.6541 21.2892C56.5181 20.4412 56.9501 19.2412 56.9501 17.6892C56.9501 16.1372 56.5181 14.9292 55.6541 14.0652C54.7901 13.2012 53.5821 12.7692 52.0301 12.7692H50.0861V22.5612H52.0301ZM67.5236 22.9452H72.8996V26.1132H63.4196V9.26522H67.5236V22.9452ZM85.8251 9.26522V12.5532H78.9611V16.1052H84.0971V19.2972H78.9611V26.1132H74.8571V9.26522H85.8251ZM90.0461 11.3292C89.3261 11.3292 88.7341 11.1212 88.2701 10.7052C87.8221 10.2732 87.5981 9.74522 87.5981 9.12122C87.5981 8.48122 87.8221 7.95322 88.2701 7.53722C88.7341 7.10522 89.3261 6.88922 90.0461 6.88922C90.7501 6.88922 91.3261 7.10522 91.7741 7.53722C92.2381 7.95322 92.4701 8.48122 92.4701 9.12122C92.4701 9.74522 92.2381 10.2732 91.7741 10.7052C91.3261 11.1212 90.7501 11.3292 90.0461 11.3292ZM92.0861 12.7212V26.1132H87.9821V12.7212H92.0861ZM100.148 12.5292C101.092 12.5292 101.916 12.7212 102.62 13.1052C103.34 13.4892 103.892 13.9932 104.276 14.6172V12.7212H108.38V26.0892C108.38 27.3212 108.132 28.4332 107.636 29.4252C107.156 30.4332 106.412 31.2332 105.404 31.8252C104.412 32.4172 103.172 32.7132 101.684 32.7132C99.7003 32.7132 98.0923 32.2412 96.8603 31.2972C95.6283 30.3692 94.9243 29.1052 94.7483 27.5052H98.8043C98.9323 28.0172 99.2363 28.4172 99.7163 28.7052C100.196 29.0092 100.788 29.1612 101.492 29.1612C102.34 29.1612 103.012 28.9132 103.508 28.4172C104.02 27.9372 104.276 27.1612 104.276 26.0892V24.1932C103.876 24.8172 103.324 25.3292 102.62 25.7292C101.916 26.1132 101.092 26.3052 100.148 26.3052C99.0443 26.3052 98.0443 26.0252 97.1483 25.4652C96.2523 24.8892 95.5403 24.0812 95.0123 23.0412C94.5003 21.9852 94.2443 20.7692 94.2443 19.3932C94.2443 18.0172 94.5003 16.8092 95.0123 15.7692C95.5403 14.7292 96.2523 13.9292 97.1483 13.3692C98.0443 12.8092 99.0443 12.5292 100.148 12.5292ZM104.276 19.4172C104.276 18.3932 103.988 17.5852 103.412 16.9932C102.852 16.4012 102.164 16.1052 101.348 16.1052C100.532 16.1052 99.8363 16.4012 99.2603 16.9932C98.7003 17.5692 98.4203 18.3692 98.4203 19.3932C98.4203 20.4172 98.7003 21.2332 99.2603 21.8412C99.8363 22.4332 100.532 22.7292 101.348 22.7292C102.164 22.7292 102.852 22.4332 103.412 21.8412C103.988 21.2492 104.276 20.4412 104.276 19.4172ZM119.581 12.5772C121.117 12.5772 122.349 13.0892 123.277 14.1132C124.205 15.1212 124.669 16.5132 124.669 18.2892V26.1132H120.589V18.8412C120.589 17.9452 120.357 17.2492 119.893 16.7532C119.429 16.2572 118.805 16.0092 118.021 16.0092C117.237 16.0092 116.613 16.2572 116.149 16.7532C115.685 17.2492 115.453 17.9452 115.453 18.8412V26.1132H111.349V8.35322H115.453V14.5212C115.869 13.9292 116.437 13.4572 117.157 13.1052C117.877 12.7532 118.685 12.5772 119.581 12.5772ZM134.985 22.6332V26.1132H132.897C131.409 26.1132 130.249 25.7532 129.417 25.0332C128.585 24.2972 128.169 23.1052 128.169 21.4572V16.1292H126.537V12.7212H128.169V9.45722H132.273V12.7212H134.961V16.1292H132.273V21.5052C132.273 21.9052 132.369 22.1932 132.561 22.3692C132.753 22.5452 133.073 22.6332 133.521 22.6332H134.985ZM149.895 19.2012C149.895 19.5852 149.871 19.9852 149.823 20.4012H140.535C140.599 21.2332 140.863 21.8732 141.327 22.3212C141.807 22.7532 142.391 22.9692 143.079 22.9692C144.103 22.9692 144.815 22.5372 145.215 21.6732H149.583C149.359 22.5532 148.951 23.3452 148.359 24.0492C147.783 24.7532 147.055 25.3052 146.175 25.7052C145.295 26.1052 144.311 26.3052 143.223 26.3052C141.911 26.3052 140.743 26.0252 139.719 25.4652C138.695 24.9052 137.895 24.1052 137.319 23.0652C136.743 22.0252 136.455 20.8092 136.455 19.4172C136.455 18.0252 136.735 16.8092 137.295 15.7692C137.871 14.7292 138.671 13.9292 139.695 13.3692C140.719 12.8092 141.895 12.5292 143.223 12.5292C144.519 12.5292 145.671 12.8012 146.679 13.3452C147.687 13.8892 148.471 14.6652 149.031 15.6732C149.607 16.6812 149.895 17.8572 149.895 19.2012ZM145.695 18.1212C145.695 17.4172 145.455 16.8572 144.975 16.4412C144.495 16.0252 143.895 15.8172 143.175 15.8172C142.487 15.8172 141.903 16.0172 141.423 16.4172C140.959 16.8172 140.671 17.3852 140.559 18.1212H145.695ZM156.164 14.9532C156.644 14.2172 157.244 13.6412 157.964 13.2252C158.684 12.7932 159.484 12.5772 160.364 12.5772V16.9212H159.236C158.212 16.9212 157.444 17.1452 156.932 17.5932C156.42 18.0252 156.164 18.7932 156.164 19.8972V26.1132H152.06V12.7212H156.164V14.9532Z" fill="#3944F7"/>
<path fill-rule="evenodd" clip-rule="evenodd" d="M14.348 9.64708L12.411 11.5841L16.158 15.3321L18.095 13.3941L14.348 9.64708ZM18.655 6.74908L20.995 9.08908C21.1693 9.27453 21.2664 9.51951 21.2664 9.77408C21.2664 10.0286 21.1693 10.2736 20.995 10.4591L19.165 12.3291L15.415 8.57908L17.245 6.74908C17.4323 6.56282 17.6858 6.45828 17.95 6.45828C18.2142 6.45828 18.4676 6.56282 18.655 6.74908ZM8.99349 15.0106L4.81622 10.8645L6.87872 8.89578L18.285 20.4591L16.285 22.4591L12.665 18.8391L4.51406 26.9805C4.49175 26.9399 4.4661 26.9002 4.43727 26.8621C4.40991 26.8259 4.37481 26.7904 4.33865 26.7538C4.3189 26.7338 4.29884 26.7134 4.27956 26.6925C3.20144 25.8253 2.03827 24.4825 1.17797 23.0988C1.14184 23.0403 1.1003 22.9872 1.05484 22.9401L8.99349 15.0106ZM0.284973 23.8868V27.4591H3.33334C2.25281 26.5236 1.15333 25.2311 0.284973 23.8868Z" fill="#3944F7"/>
</svg>
