<svg width="19" height="21" viewBox="0 0 19 21" fill="none" xmlns="http://www.w3.org/2000/svg">
<path d="M9.98236 13.5H13.9824V9.5H9.98236V6.5L4.98236 11.5L9.98236 16.5V13.5ZM16.9824 2.5H12.8024C12.3824 1.34 11.2824 0.5 9.98236 0.5C8.68236 0.5 7.58236 1.34 7.16236 2.5H2.98236C2.84236 2.5 2.71236 2.51 2.58236 2.54C2.26387 2.60682 1.9664 2.75005 1.71555 2.95735C1.4647 3.16465 1.26799 3.42981 1.14236 3.73C1.04236 3.96 0.982361 4.22 0.982361 4.5V18.5C0.982361 18.77 1.04236 19.04 1.14236 19.28C1.24236 19.52 1.39236 19.73 1.57236 19.92C1.84236 20.19 2.19236 20.39 2.58236 20.47C2.71236 20.49 2.84236 20.5 2.98236 20.5H16.9824C18.0824 20.5 18.9824 19.6 18.9824 18.5V4.5C18.9824 3.4 18.0824 2.5 16.9824 2.5ZM9.98236 2.25C10.3924 2.25 10.7324 2.59 10.7324 3C10.7324 3.41 10.3924 3.75 9.98236 3.75C9.57236 3.75 9.23236 3.41 9.23236 3C9.23236 2.59 9.57236 2.25 9.98236 2.25ZM16.9824 18.5H2.98236V4.5H16.9824V18.5Z" fill="white"/>
</svg>
